<svg xmlns="http://www.w3.org/2000/svg" xmlns:xlink="http://www.w3.org/1999/xlink" width="519.5" height="391.802" viewBox="0 0 519.5 391.802">
  <defs>
    <clipPath id="clip-path">
      <rect id="Rectangle_175199" data-name="Rectangle 175199" width="519.5" height="391.802" fill="none"/>
    </clipPath>
  </defs>
  <g id="CC_Icon_Black" data-name="CC Icon Black" clip-path="url(#clip-path)">
    <path id="Path_101599" data-name="Path 101599" d="M465.809,60.953A190.822,190.822,0,0,0,324.325.006a196.626,196.626,0,0,0-139.307,58.77H166.153A166.878,166.878,0,0,0,0,224.2a171.232,171.232,0,0,0,46.436,116.09,162.525,162.525,0,0,0,119.717,51.515H324.325c108.193-.4,195.577-88.433,195.175-196.627A199.529,199.529,0,0,0,465.809,60.953M162.525,364.237A138.582,138.582,0,0,1,161.8,87.073a137.145,137.145,0,0,1,92.163,35.568l.709-.015,57.319,59.5a24.669,24.669,0,0,1-35.552,34.1l-56.594-58.77A88.518,88.518,0,0,0,74.007,224.2a90.7,90.7,0,0,0,89.969,89.969h11.609c15.962,22.492,61.673,50.064,61.673,50.064Zm283.693-50.064a163.977,163.977,0,0,1-118.266,50.789,171.231,171.231,0,0,1-118.992-52.24l-76.184-75.458A24.626,24.626,0,1,1,167.6,202.437L243.788,277.9a121.894,121.894,0,0,0,84.165,37.729,114.638,114.638,0,0,0,83.439-36.278,122.62,122.62,0,0,0,34.827-85.616A118.266,118.266,0,0,0,327.227,76.19a105.932,105.932,0,0,0-65.3,18.865L250.318,87.8l-10.883-6.53-20.316-9.432-4.353-1.451h0A161.074,161.074,0,0,1,327.227,26.852a168.33,168.33,0,0,1,167.6,167.6,171.957,171.957,0,0,1-48.612,119.717Z" transform="translate(0 -0.006)" fill="#fff"/>
  </g>
</svg>
